<?xml version="1.0" encoding="utf-8"?>
<!-- Generator: Adobe Illustrator 19.0.0, SVG Export Plug-In . SVG Version: 6.00 Build 0)  -->
<svg version="1.1" id="layer" xmlns="http://www.w3.org/2000/svg" xmlns:xlink="http://www.w3.org/1999/xlink" x="0px" y="0px"
	 viewBox="-153 -46 652 652" style="enable-background:new -153 -46 652 652;" xml:space="preserve">
<style type="text/css">
	.st0{fill:#71B92B;}
</style>
<path class="st0" d="M165.6,354.6h0.9l6.7,25.7h-14.2L165.6,354.6z M161.5,349.6l-13,50h5.4l3.8-14.1h16.9l3.6,14.1h5.3l-13.2-50
	H161.5z M217.9,399.6v-36.9h-5.3v24.6c0,4.7-3.4,7.6-8.3,7.6c-6.8,0-8.3-4.3-8.3-8v-24.3h-5.3V387c0,8.1,5.3,13.2,13.6,13.2
	c3.2,0,6.7-1.3,8.3-3.5v2.9H217.9z M240.7,400.2c7.4,0,13.7-3.1,13.7-11.5c0-4.9-3.4-7.9-7.7-9.3c-3-0.9-7.1-1.8-9.7-2.4
	c-2.4-0.6-4.1-2.2-4.1-4.1c0-4.4,3.8-5.5,7.4-5.5c5.3,0,8.1,2.5,8.3,6.7h5.3c-0.3-7.6-5.8-11.9-13.5-11.9c-6.8,0-12.8,3-12.8,10.7
	c0,4.6,3.6,8.1,8.1,9.1c2.6,0.6,6.6,1.5,9.3,2.2c2.4,0.7,4.1,2,4.1,4.4c0,5.2-4.3,6.2-8.5,6.2c-5,0-8.3-2.5-8.3-7.4h-5.3
	C227.1,395.5,232.7,400.2,240.7,400.2 M259.4,368.1h7v22c0,6.8,3.9,9.5,8.8,9.5h4.6v-5.2h-4.3c-2,0-3.9-1-3.9-4.1v-22.3h8.1v-5.3
	h-8.1v-13.2h-5.3v13.2h-7V368.1z M303.5,368.1v-5.3h-2.9c-2.1,0-4.8,1.2-6.6,3.4v-3.4h-5.3v36.8h5.3v-23.4c0-6,3.7-8.1,6.5-8.1
	H303.5z M337,399.6h-5.3v-3.5c-1.6,2.4-5.6,4.1-9.7,4.1c-6,0-12.3-3.6-12.3-12c0-6.9,5-10.4,11.8-10.4h10.2v-3.5
	c0-5.4-3.2-6.9-7.6-6.9c-4,0-7.6,1.8-7.8,6.8H311c0.3-8.8,7.4-12,13-12c6.3,0,13,3.1,13,11.9V399.6z M331.6,382.8h-10.1
	c-4,0-6.7,1.5-6.7,5.5c0,5.5,4,6.7,7.9,6.7c4.4,0,8.9-2.9,8.9-7.9V382.8z M347.6,390.1c0,6.8,4,9.5,8.8,9.5h2v-5.2h-1.7
	c-2.1,0-3.9-1-3.9-4.1v-41.2h-5.3V390.1z M365.6,349.1h6.5v7.6h-6.5V349.1z M366.2,362.7h5.3v36.9h-5.3V362.7z M408.9,399.6h-5.3
	v-3.5c-1.6,2.4-5.6,4.1-9.7,4.1c-6,0-12.3-3.6-12.3-12c0-6.9,5-10.4,11.8-10.4h10.2v-3.5c0-5.4-3.2-6.9-7.6-6.9
	c-4,0-7.6,1.8-7.8,6.8H383c0.3-8.8,7.4-12,13-12c6.3,0,13,3.1,13,11.9V399.6z M403.6,382.8h-10.1c-4,0-6.7,1.5-6.7,5.5
	c0,5.5,4,6.7,7.9,6.7c4.4,0,8.9-2.9,8.9-7.9V382.8z M98.3,274.6c0,62.1-50.4,112.5-112.5,112.5c-62.1,0-112.5-50.4-112.5-112.5
	c0-62.1,50.4-112.5,112.5-112.5C47.9,162.1,98.3,212.5,98.3,274.6 M-59,249.4h20.5c0.6,0,1.1-0.5,1.1-1.2
	c1.7-11.3,11.4-19.9,23.1-19.9c11.7,0,21.5,8.7,23.1,19.9c0.1,0.6,0.6,1.2,1.2,1.2h20.5c0.6,0,1.2-0.5,1.2-1.1
	c-1.8-23.8-21.7-42.6-46-42.6s-44.2,18.8-46,42.6C-60.2,248.9-59.6,249.4-59,249.4 M7.9,292.1c13.3-7.3,22.7-21,23.8-37
	c0-0.6-0.5-1.1-1.2-1.1H10c-0.6,0-1.1,0.5-1.2,1.1c-1.7,11.3-11.4,19.9-23.1,19.9c-11.7,0-21.5-8.7-23.1-19.9
	c-0.1-0.7-0.5-1.1-1.2-1.1H-59c-0.6,0-1.1,0.5-1.1,1.1c1.2,16,10.5,29.6,23.8,37c-14,7.7-23.5,22.3-24,39.3c0,0.6,0.5,1.2,1.2,1.2
	h20.4c0.6,0,1.2-0.5,1.2-1.2c0.6-12.4,10.8-22.2,23.4-22.2c12.5,0,22.8,9.9,23.4,22.2c0,0.6,0.5,1.2,1.1,1.2h20.4
	c0.6,0,1.1-0.5,1.1-1.2C31.4,314.4,21.8,299.7,7.9,292.1 M188.1,286.8c0,6.8-6.9,9.1-11,9.1c-4.1,0-11-2.3-11-9.1v-36.9
	c0-6.8,6.9-9.1,11-9.1c4.1,0,11,2.3,11,9.1V286.8z M177.1,223c-19.7,0.1-28.8,13.8-28.8,25.6v39.6c0,11.7,9.1,25.5,28.8,25.6
	c19.7-0.1,28.8-13.8,28.8-25.6v-39.6C205.9,236.8,196.7,223,177.1,223 M303.3,312.1v-34.5h26.6v-17.7h-26.4v-17.6h30.8v-17.8h-48.7
	v87.5H303.3z M364.3,251.9l7.1,27.5h-14.3L364.3,251.9z M379.9,312.1h17.7l-23.2-87.5h-20.7l-22.8,87.5h17.8l4.1-15.5h23.2
	L379.9,312.1z M253.8,268.3l22.6-43.7h-20.6l-12.4,25.5l-12.4-25.5h-20.6l22.7,43.7l-22.8,43.8h20.8l12.3-25.4l12.3,25.4h20.8
	L253.8,268.3z M454.8,224.6l-15.7,33.7l-15.9-33.7h-18.2v87.5h17.4v-49.8l11.2,23.3h11.1l11.2-23.2v49.7h17.4v-87.5H454.8z"/>
</svg>
